<?xml version="1.0" encoding="UTF-8" standalone="no"?>
<svg
   height="24px"
   viewBox="0 -960 960 960"
   width="24px"
   fill="#e3e3e3"
   version="1.1"
   id="svg1"
   sodipodi:docname="default.svg"
   inkscape:version="1.3.2 (091e20e, 2023-11-25, custom)"
   xmlns:inkscape="http://www.inkscape.org/namespaces/inkscape"
   xmlns:sodipodi="http://sodipodi.sourceforge.net/DTD/sodipodi-0.dtd"
   xmlns="http://www.w3.org/2000/svg"
   xmlns:svg="http://www.w3.org/2000/svg">
  <defs
     id="defs1" />
  <sodipodi:namedview
     id="namedview1"
     pagecolor="#505050"
     bordercolor="#eeeeee"
     borderopacity="1"
     inkscape:showpageshadow="0"
     inkscape:pageopacity="0"
     inkscape:pagecheckerboard="0"
     inkscape:deskcolor="#505050"
     inkscape:zoom="48.875"
     inkscape:cx="11.98977"
     inkscape:cy="12"
     inkscape:window-width="5120"
     inkscape:window-height="1369"
     inkscape:window-x="-8"
     inkscape:window-y="-8"
     inkscape:window-maximized="1"
     inkscape:current-layer="svg1" />
  <path
     d="M240-520q-83 0-141.5-58.5T40-720q0-84 58.5-142T240-920q84 0 142 58t58 142q0 83-58 141.5T240-520Zm0-80q51 0 85.5-35t34.5-85q0-51-34.5-85.5T240-840q-50 0-85 34.5T120-720q0 50 35 85t85 35ZM640-40q-33 0-56.5-23.5T560-120v-200q0-33 23.5-56.5T640-400h200q33 0 56.5 23.5T920-320v200q0 33-23.5 56.5T840-40H640Zm0-80h200v-200H640v200Zm100-100ZM240-720Zm469 68L308-252q5 12 8.5 25t3.5 27q0 50-34.5 85T200-80q-50 0-85-35t-35-85q0-51 35-85.5t85-34.5q14 0 27 3.5t25 8.5l400-401q-5-12-8.5-24.5T640-760q0-51 35-85.5t85-34.5q51 0 85.5 34.5T880-760q0 50-34.5 85T760-640q-14 0-26.5-3.5T709-652Z"
     id="path1"
     style="fill:#bc804e;fill-opacity:1" />
</svg>
