<?xml version="1.0" encoding="UTF-8" standalone="no"?>
<svg
   height="24px"
   viewBox="0 -960 960 960"
   width="24px"
   fill="#e3e3e3"
   version="1.1"
   id="svg1"
   sodipodi:docname="geometry_tab.svg"
   inkscape:version="1.3.2 (091e20e, 2023-11-25, custom)"
   xmlns:inkscape="http://www.inkscape.org/namespaces/inkscape"
   xmlns:sodipodi="http://sodipodi.sourceforge.net/DTD/sodipodi-0.dtd"
   xmlns="http://www.w3.org/2000/svg"
   xmlns:svg="http://www.w3.org/2000/svg">
  <defs
     id="defs1" />
  <sodipodi:namedview
     id="namedview1"
     pagecolor="#505050"
     bordercolor="#eeeeee"
     borderopacity="1"
     inkscape:showpageshadow="0"
     inkscape:pageopacity="0"
     inkscape:pagecheckerboard="0"
     inkscape:deskcolor="#505050"
     inkscape:zoom="48.875"
     inkscape:cx="11.98977"
     inkscape:cy="12"
     inkscape:window-width="1350"
     inkscape:window-height="1237"
     inkscape:window-x="1138"
     inkscape:window-y="94"
     inkscape:window-maximized="0"
     inkscape:current-layer="svg1" />
  <path
     d="M200-80q-50 0-85-35t-35-85q0-39 22.5-70t57.5-43v-87q0-50 35-85t85-35h160v-127q-35-12-57.5-43T360-760q0-50 35-85t85-35q50 0 85 35t35 85q0 39-22.5 70T520-647v127h160q50 0 85 35t35 85v87q35 12 57.5 43t22.5 70q0 50-35 85t-85 35q-50 0-85-35t-35-85q0-39 22.5-70t57.5-43v-87q0-17-11.5-28.5T680-440H520v127q35 12 57.5 43t22.5 70q0 50-35 85t-85 35q-50 0-85-35t-35-85q0-39 22.5-70t57.5-43v-127H280q-17 0-28.5 11.5T240-400v87q35 12 57.5 43t22.5 70q0 50-35 85t-85 35Zm0-80q17 0 28.5-11.5T240-200q0-17-11.5-28.5T200-240q-17 0-28.5 11.5T160-200q0 17 11.5 28.5T200-160Zm280 0q17 0 28.5-11.5T520-200q0-17-11.5-28.5T480-240q-17 0-28.5 11.5T440-200q0 17 11.5 28.5T480-160Zm280 0q17 0 28.5-11.5T800-200q0-17-11.5-28.5T760-240q-17 0-28.5 11.5T720-200q0 17 11.5 28.5T760-160ZM480-720q17 0 28.5-11.5T520-760q0-17-11.5-28.5T480-800q-17 0-28.5 11.5T440-760q0 17 11.5 28.5T480-720Z"
     id="path1"
     style="fill:#a9575f;fill-opacity:1" />
</svg>
