<?xml version="1.0" encoding="UTF-8" standalone="no"?>
<svg
   height="24px"
   viewBox="0 -960 960 960"
   width="24px"
   fill="#e3e3e3"
   version="1.1"
   id="svg1"
   sodipodi:docname="modifiers_tab.svg"
   inkscape:version="1.3.2 (091e20e, 2023-11-25, custom)"
   xmlns:inkscape="http://www.inkscape.org/namespaces/inkscape"
   xmlns:sodipodi="http://sodipodi.sourceforge.net/DTD/sodipodi-0.dtd"
   xmlns="http://www.w3.org/2000/svg"
   xmlns:svg="http://www.w3.org/2000/svg">
  <defs
     id="defs1" />
  <sodipodi:namedview
     id="namedview1"
     pagecolor="#505050"
     bordercolor="#eeeeee"
     borderopacity="1"
     inkscape:showpageshadow="0"
     inkscape:pageopacity="0"
     inkscape:pagecheckerboard="0"
     inkscape:deskcolor="#505050"
     inkscape:zoom="48.875"
     inkscape:cx="11.98977"
     inkscape:cy="12"
     inkscape:window-width="5120"
     inkscape:window-height="1369"
     inkscape:window-x="-8"
     inkscape:window-y="-8"
     inkscape:window-maximized="1"
     inkscape:current-layer="svg1" />
  <path
     d="M686-132 444-376q-20 8-40.5 12t-43.5 4q-100 0-170-70t-70-170q0-36 10-68.5t28-61.5l146 146 72-72-146-146q29-18 61.5-28t68.5-10q100 0 170 70t70 170q0 23-4 43.5T584-516l244 242q12 12 12 29t-12 29l-84 84q-12 12-29 12t-29-12Zm29-85 27-27-256-256q18-20 26-46.5t8-53.5q0-60-38.5-104.5T386-758l74 74q12 12 12 28t-12 28L332-500q-12 12-28 12t-28-12l-74-74q9 57 53.5 95.5T360-440q26 0 52-8t47-25l256 256ZM472-488Z"
     id="path1"
     style="fill:#6387d2;fill-opacity:1" />
</svg>
