<?xml version="1.0" encoding="UTF-8" standalone="no"?>
<svg
   height="24px"
   viewBox="0 -960 960 960"
   width="24px"
   fill="#e3e3e3"
   version="1.1"
   id="svg1"
   sodipodi:docname="render.svg"
   inkscape:version="1.3.2 (091e20e, 2023-11-25, custom)"
   xmlns:inkscape="http://www.inkscape.org/namespaces/inkscape"
   xmlns:sodipodi="http://sodipodi.sourceforge.net/DTD/sodipodi-0.dtd"
   xmlns="http://www.w3.org/2000/svg"
   xmlns:svg="http://www.w3.org/2000/svg">
  <defs
     id="defs1" />
  <sodipodi:namedview
     id="namedview1"
     pagecolor="#505050"
     bordercolor="#eeeeee"
     borderopacity="1"
     inkscape:showpageshadow="0"
     inkscape:pageopacity="0"
     inkscape:pagecheckerboard="0"
     inkscape:deskcolor="#505050"
     inkscape:zoom="48.875"
     inkscape:cx="12"
     inkscape:cy="12"
     inkscape:window-width="1350"
     inkscape:window-height="1237"
     inkscape:window-x="1705"
     inkscape:window-y="15"
     inkscape:window-maximized="0"
     inkscape:current-layer="svg1" />
  <path
     d="M480-260q75 0 127.5-52.5T660-440q0-75-52.5-127.5T480-620q-75 0-127.5 52.5T300-440q0 75 52.5 127.5T480-260Zm0-80q-42 0-71-29t-29-71q0-42 29-71t71-29q42 0 71 29t29 71q0 42-29 71t-71 29ZM160-120q-33 0-56.5-23.5T80-200v-480q0-33 23.5-56.5T160-760h126l74-80h240l74 80h126q33 0 56.5 23.5T880-680v480q0 33-23.5 56.5T800-120H160Zm0-80h640v-480H638l-73-80H395l-73 80H160v480Zm320-240Z"
     id="path1"
     style="fill:#808080;fill-opacity:1" />
</svg>
