<?xml version="1.0" encoding="UTF-8" standalone="no"?>
<svg
   height="24px"
   viewBox="0 -960 960 960"
   width="24px"
   fill="#e3e3e3"
   version="1.1"
   id="svg1"
   sodipodi:docname="render_off.svg"
   inkscape:version="1.3.2 (091e20e, 2023-11-25, custom)"
   xmlns:inkscape="http://www.inkscape.org/namespaces/inkscape"
   xmlns:sodipodi="http://sodipodi.sourceforge.net/DTD/sodipodi-0.dtd"
   xmlns="http://www.w3.org/2000/svg"
   xmlns:svg="http://www.w3.org/2000/svg">
  <defs
     id="defs1" />
  <sodipodi:namedview
     id="namedview1"
     pagecolor="#505050"
     bordercolor="#eeeeee"
     borderopacity="1"
     inkscape:showpageshadow="0"
     inkscape:pageopacity="0"
     inkscape:pagecheckerboard="0"
     inkscape:deskcolor="#505050"
     inkscape:zoom="48.875"
     inkscape:cx="11.98977"
     inkscape:cy="12"
     inkscape:window-width="5120"
     inkscape:window-height="1369"
     inkscape:window-x="-8"
     inkscape:window-y="-8"
     inkscape:window-maximized="1"
     inkscape:current-layer="svg1" />
  <path
     d="m880-195-80-80v-405H638l-73-80H395l-38 42-57-57 60-65h240l74 80h126q33 0 56.5 23.5T880-680v485Zm-720 75q-33 0-56.5-23.5T80-200v-480q0-33 23.5-56.5T160-760h41l80 80H160v480h601l80 80H160Zm466-215q-25 34-62.5 54.5T480-260q-75 0-127.5-52.5T300-440q0-46 20.5-83.5T375-586l58 58q-24 13-38.5 36T380-440q0 42 29 71t71 29q29 0 52-14.5t36-38.5l58 58Zm-18-233q25 24 38.5 57t13.5 71v12q0 6-1 12L456-619q6-1 12-1h12q38 0 71 13.5t57 38.5ZM819-28 27-820l57-57L876-85l-57 57ZM407-440Zm171-57Z"
     id="path1"
     style="fill:#808080;fill-opacity:1" />
</svg>
